:SAMPLES-PER-SECOND 30
:FULLY-SPECIFIED
:DEGREES
65
root  75.2693 40.507 -0.779636 -172.032 -86.1059 171.938
RightUpLeg  1.65218 -7.97791 -5.69517
RightLeg  2.76521 -1.84982 3.33968
RightFoot  -2.93107 -0.0395207 0.248823
RightToes  5.82063e-011 0 -3.6325e-017
Spine  -0.668095 -0.311573 2.5197
Spine1  6.94465 -0.0166208 -1.53366
HEad  -5.86549 2.69422 -3.00557
LeftShoulder1  1.02333 -1.89921 -11.6761
LeftArm  -21.5961 14.8408 -5.86614
LeftForeArm  20.037 -15.2889 -1.99265
LeftHand  -0.244104 0.0205437 5.32207
RightShoulder  1.12975 2.52211 11.6144
RightArm  -25.0895 -3.13624 4.34386
RightForeArm  -12.6035 11.4128 4.34537
RightHand  -1.82116 4.94023 -20.5554
LeftUpLeg  2.26919 5.52091 4.05739
LeftLeg  0.259093 11.5782 -4.06366
LeftFoot  -2.32753 0.185527 -2.03965
LeftToes  4.36525e-011 -9.98543e-011 1.0027e-011
66
root  75.2791 40.5064 -0.796044 -171.52 -86.0885 171.411
RightUpLeg  1.64488 -7.98609 -5.70583
RightLeg  2.78281 -1.84391 3.33351
RightFoot  -2.96076 -0.0376522 0.219815
RightToes  5.82063e-011 0 -3.6325e-017
Spine  -0.572667 -0.184627 2.58255
Spine1  7.33569 0.0631661 -1.29428
HEad  -5.52422 2.45598 -3.39954
LeftShoulder1  1.48587 -3.07193 -15.7048
LeftArm  -23.6574 16.6315 -7.84179
LeftForeArm  20.3405 -19.2496 -2.80589
LeftHand  -0.244104 0.0205437 5.32207
RightShoulder  1.57424 3.5455 15.5666
RightArm  -24.3469 -5.63361 5.24006
RightForeArm  -12.6265 15.6281 4.79316
RightHand  -1.83994 5.19794 -20.2639
LeftUpLeg  2.29383 5.49036 4.03285
LeftLeg  0.212707 11.6198 -4.05309
LeftFoot  -2.30165 0.188913 -2.10023
LeftToes  4.36525e-011 -9.98543e-011 1.0027e-011
67
root  75.2907 40.5043 -0.816235 -170.824 -86.1023 170.715
RightUpLeg  1.60223 -8.0347 -5.73146
RightLeg  2.84756 -1.8421 3.36404
RightFoot  -3.00354 -0.0290713 0.0865957
RightToes  5.82063e-011 0 -3.6325e-017
Spine  -0.527443 -0.0301604 2.89115
Spine1  7.86399 0.262911 -1.43732
HEad  -5.38782 2.36596 -3.46236
LeftShoulder1  2.27076 -4.72962 -21.089
LeftArm  -23.9315 17.5469 -8.69413
LeftForeArm  19.5226 -21.9822 -3.62991
LeftHand  -0.244104 0.0205437 5.32207
RightShoulder  2.18725 4.60042 20.6169
RightArm  -22.0071 -7.49484 5.71953
RightForeArm  -11.9848 18.4574 5.08286
RightHand  -1.65401 4.59777 -19.3307
LeftUpLeg  2.26682 5.44511 3.99688
LeftLeg  0.213577 11.6504 -4.0227
LeftFoot  -2.28316 0.189833 -2.12516
LeftToes  4.36525e-011 -9.98543e-011 1.0027e-011
68
root  75.2982 40.5004 -0.836257 -170.183 -86.1063 170.055
RightUpLeg  1.57101 -8.09956 -5.77344
RightLeg  2.95396 -1.7955 3.40824
RightFoot  -3.07717 -0.0236688 0.00271586
RightToes  5.82063e-011 0 -3.6325e-017
Spine  -1.1862 -0.0026592 3.41736
Spine1  9.58412 0.348527 -1.68735
HEad  -5.95494 2.95533 -3.82986
LeftShoulder1  3.43981 -6.54002 -28.0797
LeftArm  -23.0619 17.3468 -8.23552
LeftForeArm  19.6005 -23.1877 -3.92868
LeftHand  -0.244104 0.0205437 5.32207
RightShoulder  2.92627 5.80843 25.3162
RightArm  -19.1488 -8.21022 6.90988
RightForeArm  -10.3558 18.8955 5.15079
RightHand  -1.33894 3.38353 -17.8178
LeftUpLeg  2.27131 5.4197 3.97683
LeftLeg  0.221074 11.6653 -4.00948
LeftFoot  -2.28326 0.189594 -2.13492
LeftToes  4.36525e-011 -9.98543e-011 1.0027e-011
69
root  75.2956 40.4962 -0.854398 -169.58 -86.1582 169.376
RightUpLeg  1.6372 -8.17149 -5.83277
RightLeg  3.04465 -1.7693 3.45779
RightFoot  -3.18091 -0.0255292 0.0316018
RightToes  5.82063e-011 0 -3.6325e-017
Spine  -2.07266 -0.0255456 4.08695
Spine1  11.7562 0.397847 -2.00687
HEad  -6.85022 3.67028 -4.51909
LeftShoulder1  4.93339 -8.43761 -35.2214
LeftArm  -21.8675 16.4746 -7.97339
LeftForeArm  20.2133 -22.9027 -3.83217
LeftHand  -0.244104 0.0205437 5.32207
RightShoulder  3.76887 7.10151 29.5638
RightArm  -16.3512 -8.39884 8.65672
RightForeArm  -6.88602 17.4176 5.1519
RightHand  -0.983304 2.14316 -15.262
LeftUpLeg  2.37194 5.45769 4.00762
LeftLeg  0.194042 11.562 -4.06457
LeftFoot  -2.28856 0.188497 -2.13432
LeftToes  4.36525e-011 -9.98543e-011 1.0027e-011
70
root  75.2856 40.4913 -0.880026 -168.447 -86.3829 168.161
RightUpLeg  1.74455 -8.24919 -5.88232
RightLeg  3.15277 -1.92941 3.50915
RightFoot  -3.32896 -0.0242366 0.0115311
RightToes  5.82063e-011 0 -3.6325e-017
Spine  -2.44349 -0.000117366 4.69949
Spine1  13.0881 0.531228 -2.39687
HEad  -7.47383 3.85658 -4.67916
LeftShoulder1  6.42748 -10.1659 -40.7419
LeftArm  -20.2701 15.3919 -9.38197
LeftForeArm  19.6483 -21.139 -3.51601
LeftHand  -0.244104 0.0205437 5.32207
RightShoulder  4.68685 8.25795 33.9008
RightArm  -14.1368 -8.97922 10.3439
RightForeArm  -2.39539 15.2974 5.26487
RightHand  -0.703323 1.43112 -12.1187
LeftUpLeg  2.46477 5.54861 4.0878
LeftLeg  0.187815 11.2313 -4.16458
LeftFoot  -2.29566 0.189506 -2.16964
LeftToes  4.36525e-011 -9.98543e-011 1.0027e-011
